<svg id="Layer_1" enable-background="new 0 0 128 128" height="512" viewBox="0 0 128 128" width="512" xmlns="http://www.w3.org/2000/svg"><path d="m79 60.9-4.9 3.2v-14h-5.8c-1.7 0-3.1-1.4-3.1-3.1v-21.7c-11.3-9.9-28.5-8.7-38.3 2.6-3.5 4-5.7 8.9-6.5 14.1-.6 4.1-1.5 8.2-2.8 12.2l-3.6 12.3c-1.4 4.7.6 9.7 4.8 12.1 1.7 1 3.6 1.4 5.5 1.4h11.2l.6-4.3c6.2 4.6 14.8 4.6 21 0l.6 4.3h12.6c1.9 0 3.9-.5 5.5-1.4 4.2-2.4 6.2-7.5 4.8-12.1z" fill="#5a6571"/><path d="m80.6 66.5-1.6-5.6-4.9 3.2v-14h-5.8c-1.7 0-3.1-1.4-3.1-3.1v-21.7c-9.7-8.5-24.1-9-34.4-1.1 10.1-5.8 22.7-4.5 31.4 3.1v21.7c0 1.7 1.4 3.1 3.1 3.1h5.8v14l4.9-3.2 1.7 5.6c1.1 3.8 0 7.9-2.8 10.6.3-.1.7-.3 1-.5 4.1-2.5 6.1-7.5 4.7-12.1z" fill="#49545b"/><path d="m123.2 8.8h-54.9c-1.7 0-3.1 1.4-3.1 3.1v35.1c0 1.7 1.4 3.1 3.1 3.1h5.8v14l21.6-14h27.5c1.7 0 3.1-1.4 3.1-3.1v-35.1c0-1.7-1.4-3.1-3.1-3.1z" fill="#ffc543"/><path d="m123.2 8.8h-54.9c-1.7 0-3 1.3-3.1 3h.1 54.9c1.7 0 3.1 1.4 3.1 3.1v35.1.1c1.7 0 3-1.4 3-3.1v-35.1c0-1.7-1.4-3.1-3.1-3.1z" fill="#f90"/><path d="m66.7 51.8c-14.8-2.4-15.5-16.3-15.5-16.3-6.1 13.3-24.8 13.4-24.8 13.4v1.1c0 1.3.1 2.5.4 3.8l1.2 5.6 1.3 5.9c.1.5.2 1 .4 1.5s.3 1 .5 1.4c3.7 9.1 14 13.4 23.1 9.7 4.4-1.8 7.9-5.3 9.7-9.7.2-.5.4-.9.5-1.4s.3-1 .4-1.5l1.3-5.9 1.2-5.6c.2-.9.3-1.9.4-2.9 0 .3-.1.6-.1.9z" fill="#ffe4c2"/><path d="m26.8 53.8c-.3-1.2-.4-2.5-.4-3.8v-1.1c-3-.4-5.8 1.7-6.2 4.7s1.7 5.8 4.7 6.2c1.1.2 2.2 0 3.2-.5z" fill="#ffe4c2"/><path d="m28 59.3-1.2-5.6c-.3-1.2-.4-2.5-.4-3.8v-1.1c-1.4-.2-2.9.2-4 1 0 1.6.2 3.1.5 4.6l1.1 5c1.3.6 2.7.5 4-.1z" fill="#f2d1a5"/><path d="m75.1 88.7-12-1.2c-2.6-.3-4.7-2.3-5.1-4.9l-.9-6.9c-6.2 4.6-14.8 4.6-21 0l-.9 6.9c-.3 2.6-2.4 4.7-5.1 4.9l-12 1.2c-9.3.9-16.3 8.7-16.4 18v12.5h89.7v-12.5c0-9.3-7-17.1-16.3-18z" fill="#ffe4c2"/><path d="m57.7 80.1-.6-4.4c-6.2 4.6-14.8 4.6-21 0l-.6 4.4c6.9 4.1 15.3 4.1 22.2 0z" fill="#f2d1a5"/><path d="m75.1 88.7-10.9-1.1-1.5 2.5c-3.4 5.7-9.5 9.3-16.2 9.3-6.7 0-12.8-3.5-16.2-9.3l-1.5-2.5-10.7 1.1c-.3 0-.6.1-.9.1v30.4h58.8v-30.4c-.3 0-.6-.1-.9-.1z" fill="#ff8533"/><path d="m24.8 90.7 1.5 2.5c5.3 8.9 16.8 11.9 25.7 6.6 1.3-.8 2.6-1.7 3.7-2.8-8.9 5-20.2 2-25.4-6.8l-1.5-2.5-10.7 1.1c-.3 0-.6.1-.9.1v2.6z" fill="#ff6700"/><path d="m75.1 88.7-10.9-1.1-1.5 2.5c-.1.2-.3.5-.4.7l8.8.9c.3 0 .6.1.9.1v27.4h4v-30.4c-.3 0-.6-.1-.9-.1z" fill="#ff6700"/><path d="m71 50.1h-2.8c-.5 0-1-.1-1.4-.4v.3c0 1.3-.1 2.5-.4 3.8l-1.2 5.6c2.7 1.3 6 .1 7.3-2.6 1.1-2.4.5-5.1-1.5-6.7z" fill="#ffe4c2"/><path d="m69.2 59.6 1.1-5c.2-1.1.4-2.3.5-3.5v-1h-2.5c-.5 0-1-.1-1.4-.4v.3c0 1.3-.1 2.5-.4 3.8l-1.2 5.6c1.1.5 2.6.6 3.9.2z" fill="#f2d1a5"/><g fill="#001522"><path d="m86.4 10.6h2.8c1 0 1.8-.8 1.8-1.8s-.8-1.8-1.8-1.8h-2.8c-1 0-1.8.8-1.8 1.8s.8 1.8 1.8 1.8z"/><path d="m123.2 7.1h-27.5c-1 0-1.8.8-1.8 1.8s.8 1.8 1.8 1.8h27.5c.7 0 1.3.6 1.3 1.3v35c0 .7-.6 1.3-1.3 1.3h-27.5c-.3 0-.7.1-1 .3l-18.9 12.3v-10.8c0-1-.8-1.8-1.8-1.8h-5.8c-.7 0-1.3-.6-1.3-1.3v-35.1c0-.7.6-1.3 1.3-1.3h11.6c1 0 1.8-.8 1.8-1.8s-.8-1.8-1.8-1.8h-11.5c-2.7 0-4.8 2.2-4.8 4.8v9.9c-13.2-8.9-31.2-5.4-40.1 7.8-2.5 3.6-4 7.8-4.7 12.2-.6 4-1.5 8-2.7 11.9l-3.7 12.4c-1.6 5.4.7 11.3 5.6 14.1 2 1.1 4.2 1.7 6.4 1.7h9.2l-.1.6c-.2 1.8-1.7 3.2-3.5 3.4-4.3.4-8.7.6-13 1.3-9.7 1.4-16.9 9.8-16.9 19.6v12.5c0 1 .8 1.8 1.8 1.8h89.7c1 0 1.8-.8 1.8-1.8v-12.5c0-9.8-7.2-18.2-16.9-19.6-4.3-.7-8.7-.9-13-1.3-1.8-.2-3.3-1.6-3.5-3.4l-.1-.6h10.6c2.3 0 4.5-.6 6.4-1.7 4.9-2.9 7.2-8.7 5.6-14.1l-1.4-4.3 15.2-9.9h26.9c2.7 0 4.8-2.2 4.8-4.8v-35.1c.1-2.7-2.1-4.8-4.7-4.8zm-51.9 47.3c0 2.1-1.7 3.7-3.8 3.8-.1 0-.2 0-.3 0 .5-2.1.9-4.2 1.2-6.3h1.9c.7.6 1 1.5 1 2.5zm-6.6-1c-.6 2.6-1.1 5.1-1.7 7.7-.4 1.7-.7 3.3-1.1 5-1 3.3-3 6.1-5.7 8.2-3 1.9-6 3.2-9.6 3.2s-6.6-1.4-9.6-3.3c-2.2-1.7-4-3.9-5.1-6.4-.6-1.5-1-3.1-1.3-4.8-.5-2.3-1-4.6-1.5-6.9-.5-1.8-.8-3.7-.9-5.6 2-.2 3.9-.5 5.9-.9v.2c0 2 1.7 3.7 3.7 3.7s3.7-1.7 3.7-3.7c0-.8-.3-1.7-.8-2.3 3.9-1.6 7.3-4.1 9.9-7.4.7 2.2 1.8 4.2 3.2 6.1-2 .4-3.3 2.3-2.9 4.3s2.3 3.3 4.3 2.9c1.6-.3 2.8-1.6 3-3.2 2.1 1.4 4.2 2.3 6.6 2.9zm-40.1-2.7c.2 2.5.7 4.9 1.3 7.4-.1 0-.2 0-.3 0-2.1 0-3.8-1.7-3.8-3.7.1-1.7 1.2-3.2 2.8-3.7zm22.7-30.3c5.9 0 11.6 2 16.1 5.8v20.8c0 .8.2 1.6.6 2.4-10.4-3.3-11.1-13.5-11.1-14 0-1-.9-1.7-1.8-1.7-.6 0-1.2.4-1.5 1-5.5 12-22.8 12.4-23.2 12.4-2-.3-4 .4-5.5 1.8.6-2.3 1-4.5 1.3-6.6 1.7-12.6 12.4-21.9 25.1-21.9zm-23 57.9c-1.6 0-3.2-.4-4.7-1.2-3.5-2-5.2-6.2-4-10.1l3.1-10.4c1 3 3.8 5 6.9 5 .4 0 .7 0 1.1-.1l.9 4.1c.1.5.3 1.1.4 1.6.2.5.3 1 .6 1.6 1.2 3 3.2 5.6 5.7 7.7l-.3 1.8zm-5.3 39.1v-6.3c0-1-.8-1.8-1.8-1.8s-1.7.8-1.7 1.8v6.3h-12v-10.7c0-7.3 4.9-13.8 12-15.8v8.3c0 1 .8 1.7 1.8 1.7s1.7-.8 1.7-1.7v-8.9l8.9-.9.9 1.5c5.8 9.8 18.3 13 28.1 7.3 3-1.8 5.5-4.3 7.3-7.3l.9-1.6 9.1.9v27.1zm70.7-10.7v10.7h-12v-26.4c7.1 1.9 12 8.4 12 15.7zm-28.3-17.8-.2.3c-4.8 8.1-15.2 10.8-23.3 6-2.5-1.5-4.6-3.5-6-6l-.2-.2c2.8-.8 4.9-3.2 5.3-6.2l.3-2.6.2-1.6c5.7 3 12.5 3 18.2 0l.2 1.6.3 2.6c.4 2.9 2.4 5.3 5.2 6.1zm16.6-25.2 1 3.3c1.2 3.9-.5 8.1-4 10.1-1.4.8-3 1.2-4.7 1.2h-11.1l-.2-1.8c2.5-2.1 4.4-4.7 5.7-7.7.2-.5.4-1.1.6-1.6s.3-1.1.4-1.6l.9-4.1c2.1.3 4.3-.3 5.8-1.7v4.3c0 1 .8 1.8 1.8 1.7.3 0 .6-.1.9-.3z"/><path d="m95.7 14.4h-21.9c-1 0-1.8.8-1.8 1.8s.8 1.8 1.8 1.8h21.9c1 0 1.8-.8 1.8-1.8s-.8-1.8-1.8-1.8z"/><path d="m117.6 23.3h-43.8c-1 0-1.8.8-1.8 1.8s.8 1.8 1.8 1.8h43.8c1 0 1.8-.8 1.8-1.8s-.8-1.8-1.8-1.8z"/><path d="m117.6 32.1h-43.8c-1 0-1.8.8-1.8 1.8s.8 1.8 1.8 1.8h43.8c1 0 1.8-.8 1.8-1.8s-.8-1.8-1.8-1.8z"/><path d="m117.6 40.9h-43.8c-1 0-1.8.8-1.8 1.8s.8 1.8 1.8 1.8h43.8c1 0 1.8-.8 1.8-1.8s-.8-1.8-1.8-1.8z"/><path d="m46.8 60.7h1.6c1 0 1.8-.8 1.8-1.8s-.8-1.8-1.8-1.8h-1.1l.5-3.3c.1-1-.5-1.8-1.5-2-1-.1-1.8.5-2 1.5l-.6 3.8c-.3 1.7.9 3.3 2.6 3.5.2.1.3.1.5.1z"/><path d="m50.5 63.8c-1.1 1.1-2.5 1.6-4 1.6-1.5.1-3-.5-4-1.5-.6-.7-1.7-.8-2.5-.2-.7.6-.8 1.7-.2 2.4 1.7 1.9 4.2 2.9 6.7 2.8 2.6.1 5-.9 6.7-2.8.6-.7.5-1.8-.2-2.5s-1.8-.6-2.5.2z"/></g></svg>