<svg id="Layer_3" enable-background="new 0 0 64 64" height="512" viewBox="0 0 64 64" width="512" xmlns="http://www.w3.org/2000/svg"><path d="m8 62 15-20h18l15 20z" fill="#54585e"/><path d="m23 42-15 20h45l-15-20z" fill="#7e848d"/><path d="m4 26h4v36h-4z" fill="#c1c8d1"/><path d="m56 26h4v36h-4z" fill="#c1c8d1"/><path d="m10 4h44v20h-44z" fill="#71995f"/><path d="m10 4h41v20h-41z" fill="#96cc7f"/><path d="m54 2h8v24h-8z" fill="#71995f"/><path d="m54 2h5v24h-5z" fill="#96cc7f"/><path d="m2 2h8v24h-8z" fill="#71995f"/><path d="m2 2h5v24h-5z" fill="#96cc7f"/><path d="m54 25h-44c-.553 0-1-.448-1-1v-20c0-.552.447-1 1-1h44c.553 0 1 .448 1 1v20c0 .552-.447 1-1 1zm-43-2h42v-18h-42z"/><path d="m10 27h-8c-.553 0-1-.448-1-1v-24c0-.552.447-1 1-1h8c.553 0 1 .448 1 1v24c0 .552-.447 1-1 1zm-7-2h6v-22h-6z"/><path d="m62 27h-8c-.553 0-1-.448-1-1v-24c0-.552.447-1 1-1h8c.553 0 1 .448 1 1v24c0 .552-.447 1-1 1zm-7-2h6v-22h-6z"/><path d="m8 63h-4c-.553 0-1-.448-1-1v-36h2v35h2v-35h2v36c0 .552-.447 1-1 1z"/><path d="m60 63h-4c-.553 0-1-.448-1-1v-36h2v35h2v-35h2v36c0 .552-.447 1-1 1z"/><path d="m56 63h-48c-.379 0-.725-.214-.895-.553-.168-.339-.132-.744.095-1.047l15-20c.188-.252.485-.4.8-.4h18c.314 0 .611.148.8.4l15 20c.228.303.264.708.095 1.047-.17.339-.516.553-.895.553zm-46-2h44l-13.5-18h-17z"/><path d="m16 19h-3v-2h3c.552 0 1-.449 1-1s-.448-1-1-1c-1.654 0-3-1.346-3-3s1.346-3 3-3h3v2h-3c-.552 0-1 .449-1 1s.448 1 1 1c1.654 0 3 1.346 3 3s-1.346 3-3 3z"/><path d="m21 9h6v2h-6z"/><path d="m23 10h2v9h-2z"/><path d="m45 9h6v2h-6z"/><path d="m47 10h2v9h-2z"/><path d="m35 19h-2v-7c0-.551-.448-1-1-1s-1 .449-1 1v7h-2v-7c0-1.654 1.346-3 3-3s3 1.346 3 3z"/><path d="m30 15h4v2h-4z"/><path d="m43 19h-2v-2c0-.551-.448-1-1-1h-1v3h-2v-9c0-.552.447-1 1-1h1.5c1.93 0 3.5 1.57 3.5 3.5 0 .904-.345 1.729-.909 2.351.56.545.909 1.307.909 2.149zm-4-5h.5c.827 0 1.5-.673 1.5-1.5s-.673-1.5-1.5-1.5h-.5z"/><path d="m31 59h2v3h-2z"/><path d="m31 55h2v2h-2z"/><path d="m31 51h2v2h-2z"/><path d="m31 47h2v2h-2z"/><path d="m31 42h2v3h-2z"/></svg>