<svg xmlns="http://www.w3.org/2000/svg" height="518.855pt" version="1.1" viewBox="1 1 518.855 518.855" width="518.855pt">
<g id="surface1">
<path d="M 501.699219 484.398438 L 501.699219 34.601562 C 501.699219 25.046875 493.953125 17.300781 484.398438 17.300781 C 474.84375 17.300781 467.101562 25.046875 467.101562 34.601562 L 467.101562 484.398438 C 467.101562 493.953125 474.84375 501.699219 484.398438 501.699219 C 493.953125 501.699219 501.699219 493.953125 501.699219 484.398438 Z M 501.699219 484.398438 " style=" stroke:none;fill-rule:nonzero;fill:rgb(100%,89.411765%,46.666667%);fill-opacity:1;" />
<path d="M 51.902344 484.398438 L 51.902344 415.199219 C 51.902344 405.644531 44.15625 397.898438 34.601562 397.898438 C 25.046875 397.898438 17.300781 405.644531 17.300781 415.199219 L 17.300781 484.398438 C 17.300781 493.953125 25.046875 501.699219 34.601562 501.699219 C 44.15625 501.699219 51.902344 493.953125 51.902344 484.398438 Z M 51.902344 484.398438 " style=" stroke:none;fill-rule:nonzero;fill:rgb(100%,89.411765%,46.666667%);fill-opacity:1;" />
<path d="M 389.25 484.398438 L 389.25 86.5 C 389.25 76.945312 381.503906 69.199219 371.949219 69.199219 C 362.394531 69.199219 354.648438 76.945312 354.648438 86.5 L 354.648438 484.398438 C 354.648438 493.953125 362.394531 501.699219 371.949219 501.699219 C 381.503906 501.699219 389.25 493.953125 389.25 484.398438 Z M 389.25 484.398438 " style=" stroke:none;fill-rule:nonzero;fill:rgb(0%,86.666667%,76.078431%);fill-opacity:1;" />
<path d="M 276.800781 484.398438 L 276.800781 190.300781 C 276.800781 180.746094 269.054688 173 259.5 173 C 249.945312 173 242.199219 180.746094 242.199219 190.300781 L 242.199219 484.398438 C 242.199219 493.953125 249.945312 501.699219 259.5 501.699219 C 269.054688 501.699219 276.800781 493.953125 276.800781 484.398438 Z M 276.800781 484.398438 " style=" stroke:none;fill-rule:nonzero;fill:rgb(100%,89.411765%,46.666667%);fill-opacity:1;" />
<path d="M 164.351562 484.398438 L 164.351562 294.101562 C 164.351562 284.546875 156.605469 276.800781 147.050781 276.800781 C 137.496094 276.800781 129.75 284.546875 129.75 294.101562 L 129.75 484.398438 C 129.75 493.953125 137.496094 501.699219 147.050781 501.699219 C 156.605469 501.699219 164.351562 493.953125 164.351562 484.398438 Z M 164.351562 484.398438 " style=" stroke:none;fill-rule:nonzero;fill:rgb(0%,86.666667%,76.078431%);fill-opacity:1;" />
<path d="M 259.5 155.699219 C 240.390625 155.699219 224.902344 171.191406 224.902344 190.300781 L 224.902344 484.398438 C 224.902344 503.507812 240.390625 519 259.5 519 C 278.609375 519 294.101562 503.507812 294.101562 484.398438 L 294.101562 190.300781 C 294.101562 171.191406 278.609375 155.699219 259.5 155.699219 Z M 276.800781 484.398438 C 276.800781 493.953125 269.054688 501.699219 259.5 501.699219 C 249.945312 501.699219 242.199219 493.953125 242.199219 484.398438 L 242.199219 190.300781 C 242.199219 180.746094 249.945312 173 259.5 173 C 269.054688 173 276.800781 180.746094 276.800781 190.300781 Z M 276.800781 484.398438 " style=" stroke:none;fill-rule:nonzero;fill:rgb(13.72549%,12.156863%,12.54902%);fill-opacity:1;" />
<path d="M 147.050781 259.5 C 127.941406 259.5 112.449219 274.992188 112.449219 294.101562 L 112.449219 484.398438 C 112.449219 503.507812 127.941406 519 147.050781 519 C 166.160156 519 181.648438 503.507812 181.648438 484.398438 L 181.648438 294.101562 C 181.648438 274.992188 166.160156 259.5 147.050781 259.5 Z M 164.351562 484.398438 C 164.351562 493.953125 156.605469 501.699219 147.050781 501.699219 C 137.496094 501.699219 129.75 493.953125 129.75 484.398438 L 129.75 294.101562 C 129.75 284.546875 137.496094 276.800781 147.050781 276.800781 C 156.605469 276.800781 164.351562 284.546875 164.351562 294.101562 Z M 164.351562 484.398438 " style=" stroke:none;fill-rule:nonzero;fill:rgb(13.72549%,12.156863%,12.54902%);fill-opacity:1;" />
<path d="M 34.601562 380.601562 C 15.492188 380.601562 0 396.089844 0 415.199219 L 0 484.398438 C 0 503.507812 15.492188 519 34.601562 519 C 53.707031 519 69.199219 503.507812 69.199219 484.398438 L 69.199219 415.199219 C 69.199219 396.089844 53.710938 380.601562 34.601562 380.601562 Z M 51.902344 484.398438 C 51.902344 493.953125 44.15625 501.699219 34.601562 501.699219 C 25.046875 501.699219 17.300781 493.953125 17.300781 484.398438 L 17.300781 415.199219 C 17.300781 405.644531 25.046875 397.898438 34.601562 397.898438 C 44.15625 397.898438 51.902344 405.644531 51.902344 415.199219 Z M 51.902344 484.398438 " style=" stroke:none;fill-rule:nonzero;fill:rgb(13.72549%,12.156863%,12.54902%);fill-opacity:1;" />
<path d="M 371.949219 51.902344 C 352.839844 51.902344 337.351562 67.390625 337.351562 86.5 L 337.351562 484.398438 C 337.351562 503.507812 352.839844 519 371.949219 519 C 391.058594 519 406.550781 503.507812 406.550781 484.398438 L 406.550781 86.5 C 406.550781 67.390625 391.058594 51.902344 371.949219 51.902344 Z M 389.25 484.398438 C 389.25 493.953125 381.503906 501.699219 371.949219 501.699219 C 362.394531 501.699219 354.648438 493.953125 354.648438 484.398438 L 354.648438 86.5 C 354.648438 76.945312 362.394531 69.199219 371.949219 69.199219 C 381.503906 69.199219 389.25 76.945312 389.25 86.5 Z M 389.25 484.398438 " style=" stroke:none;fill-rule:nonzero;fill:rgb(13.72549%,12.156863%,12.54902%);fill-opacity:1;" />
<path d="M 484.398438 0 C 465.289062 0 449.800781 15.492188 449.800781 34.601562 L 449.800781 484.398438 C 449.800781 503.507812 465.292969 519 484.398438 519 C 503.507812 519 519 503.507812 519 484.398438 L 519 34.601562 C 519 15.492188 503.507812 0 484.398438 0 Z M 501.699219 484.398438 C 501.699219 493.953125 493.953125 501.699219 484.398438 501.699219 C 474.84375 501.699219 467.101562 493.953125 467.101562 484.398438 L 467.101562 34.601562 C 467.101562 25.046875 474.84375 17.300781 484.398438 17.300781 C 493.953125 17.300781 501.699219 25.046875 501.699219 34.601562 Z M 501.699219 484.398438 " style=" stroke:none;fill-rule:nonzero;fill:rgb(13.72549%,12.156863%,12.54902%);fill-opacity:1;" />
</g>
</svg>