<svg id="Layer_1" enable-background="new 0 0 512 512" height="512" viewBox="0 0 512 512" width="512" xmlns="http://www.w3.org/2000/svg"><g><path d="m459.66 42.32v64.18c0 10.95-8.87 19.83-19.81 19.83h-32.27v36.46l-53.51-36.46h-195.92l-53.5 36.46v-36.46h-32.28c-10.93 0-19.8-8.88-19.8-19.83v-64.18c0-10.94 8.87-19.82 19.8-19.82h367.48c10.94 0 19.81 8.88 19.81 19.82z" fill="#ffe85f"/><path d="m230.21 457.266c-16.11 10.21-33.71 18.27-52.4 23.77-18.69 5.51-38.47 8.46-58.95 8.46-40.95 0-79.14-11.81-111.36-32.23 0-2.12.14-4.21.42-6.26 1.39-10.25 6.13-19.42 13.09-26.38 8.35-8.36 19.88-13.53 32.62-13.53h130.45c25.48 0 46.13 20.68 46.13 46.17z" fill="#f35"/><path d="m230.21 457.266c-16.11 10.21-33.71 18.27-52.4 23.77-18.69 5.51-38.47 8.46-58.95 8.46-40.95 0-79.14-11.81-111.36-32.23 0-2.12.14-4.21.42-6.26 33.09 12.62 81.6 18.49 110.94 18.49 31.35 0 61.95-7.73 89.27-22.46-3.99-9.36-18.76-35.94-33.97-35.94h9.92c25.48 0 46.13 20.68 46.13 46.17z" fill="#e52870"/><path d="m488.76 422.55h-191.23c10.31-19.41 14.21-157.55 14.21-157.55v-.47c0-42.65 32.23-61.38 70.4-64.3 3.62-.28 7.29-.42 11-.42 42.92 0 81.67 18.14 81.41 65.19 0 0 3.9 138.14 14.21 157.55z" fill="#ff8150"/><path d="m488.76 422.55h-22c-10.31-19.41-14.21-157.55-14.21-157.55.24-42.99-32.09-61.84-70.41-64.77 3.62-.28 7.29-.42 11-.42 42.92 0 81.67 18.14 81.41 65.19 0 0 3.9 138.14 14.21 157.55z" fill="#f55"/><g><path d="m140.835 390.685c-.81 6.78-.74 13.65.21 20.42 0 12.28-9.93 22.22-22.19 22.22-2.82 0-5.52-.52-8-1.49-8.31-3.21-14.2-11.27-14.2-20.73.95-6.77 1.02-13.64.21-20.43-22.11-17.9-33.32-33.68-33.32-46.88 0-1.4.05-2.81.17-4.15.57-5.81.7-25.03.39-42.2l54.75-41.98 38.58 29.58 16.16 12.39c-.31 17.17-.18 36.37.39 42.18.12 1.37.17 2.78.17 4.18 0 13.2-11.21 28.97-33.32 46.89z" fill="#ffdcc5"/><path d="m140.835 390.685c-.81 6.78-.74 13.65.21 20.42 0 12.28-9.93 22.22-22.19 22.22-2.82 0-5.52-.52-8-1.49 8.31-3.21 14.19-11.28 14.19-20.73-.95-6.77-1.02-19.64-.21-26.42 22.11-17.92 31.491-31.664 33.32-40.89.272-1.373-.05-2.81-.17-4.18-.38-3.88-.56-31.5-.55-54.57l16.16 12.39c-.31 17.17-.18 36.37.39 42.18.12 1.37.17 2.78.17 4.18 0 13.2-11.21 28.97-33.32 46.89z" fill="#ffc6bb"/></g><path d="m193.66 268.74c0 14.69-10.92 26.82-25.08 28.71-1.27.17-2.56.26-3.87.26-12.32 0-22.84-7.7-27.02-18.55-5.24 3.95-11.76 6.3-18.83 6.3-7.08 0-13.6-2.35-18.84-6.3-4.18 10.85-14.7 18.55-27.02 18.55-15.99 0-28.95-12.97-28.95-28.97 0-10.67 5.77-19.99 14.35-25.01-3.88-3.66-6.31-8.86-6.31-14.62 0-11.08 8.98-20.07 20.05-20.07 3.41 0 6.63.86 9.44 2.36 3.6-6.88 10.79-11.59 19.1-11.59 7.59 0 14.27 3.94 18.11 9.88h.13s.01-.01.02-.03c3.84-5.92 10.51-9.85 18.09-9.85 9.96 0 18.33 6.75 20.82 15.93 2.05-.88 4.31-1.37 6.68-1.37 9.35 0 16.92 7.58 16.92 16.93 0 4.33-1.62 8.28-4.29 11.27 9.76 4.66 16.5 14.63 16.5 26.17z" fill="#9e5c47"/><path d="m193.66 268.74c0 14.69-10.92 26.82-25.08 28.71 4.34-5.07 6.96-11.65 6.96-18.84 0-11.54-6.74-21.5-16.49-26.16 2.67-3 4.29-6.94 4.29-11.27 0-9.36-7.58-16.94-16.92-16.94-2.38 0-4.64.49-6.69 1.38-2.48-9.18-10.86-15.93-20.81-15.93 0 0 .01-.01.02-.03 3.84-5.92 10.51-9.85 18.09-9.85 9.96 0 18.33 6.75 20.82 15.93 2.05-.88 4.31-1.37 6.68-1.37 9.35 0 16.92 7.58 16.92 16.93 0 4.33-1.62 8.28-4.29 11.27 9.76 4.66 16.5 14.63 16.5 26.17z" fill="#893636"/><g><path d="m504.5 457.274c-16.11 10.21-33.71 18.27-52.4 23.77-18.69 5.51-38.47 8.46-58.95 8.46-40.95 0-79.14-11.81-111.36-32.23 0-2.12.14-4.21.42-6.26 1.39-10.25 6.13-19.42 13.09-26.38 8.35-8.36 19.88-13.53 32.62-13.53h130.45c25.48 0 46.13 20.68 46.13 46.17z" fill="#33cfff"/><path d="m504.5 457.274c-16.11 10.21-33.71 18.27-52.4 23.77-18.69 5.51-38.47 8.46-58.95 8.46-40.95 0-79.14-11.81-111.36-32.23 0-2.12.14-4.21.42-6.26 33.09 12.62 81.6 18.49 110.94 18.49 31.35 0 61.95-7.73 89.27-22.46-3.99-9.36-18.76-35.94-33.97-35.94h9.92c25.48 0 46.13 20.68 46.13 46.17z" fill="#33a8ff"/></g><g><path d="m415.131 390.678c-.81 6.78-.74 13.65.21 20.42 0 12.28-9.93 22.22-22.2 22.22-2.81 0-5.51-.52-7.98-1.49h-.01c-8.31-3.2-14.2-11.27-14.2-20.73.95-6.77 1.02-13.64.21-20.43-22.11-17.9-33.32-33.68-33.32-46.88 0-1.4.05-2.81.17-4.15.57-5.81.7-25.03.39-42.2h53.25c12.39 0 22.43-10.06 22.43-22.46 0 10.76 7.56 19.75 17.66 21.94 1.54.34 3.14.52 4.78.52l11.37-.01c-.31 17.17-.18 36.37.39 42.18.12 1.37.17 2.78.17 4.18 0 13.2-11.21 28.97-33.32 46.89z" fill="#ffdcc5"/><path d="m415.131 390.678c-.81 6.78-.74 13.65.21 20.42 0 12.28-9.93 22.22-22.2 22.22-2.81 0-5.51-.52-7.98-1.49 8.3-3.22 14.18-11.28 14.18-20.73-.95-6.77-1.02-19.64-.21-26.42 22.11-17.92 33.32-33.358 33.32-40.89 0-1.4-.05-2.81-.17-4.18-.32-3.23-.49-22.89-.54-42.69 1.54.34 3.14.52 4.78.52l11.37-.01c-.31 17.17-.18 36.37.39 42.18.12 1.37.17 2.78.17 4.18 0 13.2-11.21 28.97-33.32 46.89z" fill="#ffc6bb"/></g><path d="m459.66 72.559v33.941c0 10.95-8.87 19.83-19.81 19.83h-32.27v36.46l-53.51-36.46h-195.92l-53.5 36.46v-36.46h-32.28c-10.93 0-19.8-8.88-19.8-19.83v-7.26h380.41c14.73 0 26.68-11.951 26.68-26.681z" fill="#ffcf48"/></g><g><path d="m184.084 403.604h-36.215c-.149-3.028-.106-6.068.13-9.1 22.644-18.849 33.664-35.458 33.664-50.715 0-1.655-.067-3.277-.207-4.916-.474-4.838-.645-21.162-.413-37.533 11.919-6.004 20.116-18.363 20.116-32.603 0-11.224-5.253-21.768-13.851-28.607 1.08-2.79 1.646-5.779 1.646-8.827 0-13.474-10.955-24.437-24.42-24.437-.759 0-1.513.034-2.261.103-5.083-8.888-14.65-14.656-25.237-14.656-6.728 0-13.098 2.296-18.18 6.38-5.081-4.084-11.451-6.38-18.179-6.38-8.553 0-16.499 3.725-21.946 10.028-2.15-.529-4.366-.801-6.589-.801-15.193 0-27.553 12.369-27.553 27.572 0 4.623 1.18 9.153 3.356 13.163-7.165 6.816-11.391 16.386-11.391 26.462 0 14.241 8.198 26.601 20.118 32.604.232 16.375.061 32.718-.42 37.641-.133 1.512-.2 3.129-.2 4.806 0 15.259 11.019 31.867 33.662 50.711.236 3.032.279 6.074.13 9.105h-36.218c-29.569 0-53.626 24.077-53.626 53.671 0 2.569 1.315 4.96 3.486 6.335 11.954 7.574 24.696 13.985 37.871 19.054.886.341 1.796.502 2.692.502 3.013 0 5.854-1.829 7.001-4.809 1.488-3.866-.44-8.206-4.306-9.693-10.907-4.197-21.495-9.382-31.533-15.44 2.029-19.426 18.483-34.621 38.416-34.621h36.479c1.311 5.067 3.951 9.714 7.747 13.513 5.609 5.615 13.068 8.708 21.003 8.708 13.788 0 25.412-9.452 28.742-22.221h36.487c19.933 0 36.387 15.195 38.416 34.621-31.208 18.835-66.945 28.771-103.641 28.771-13.748 0-27.482-1.396-40.821-4.148-4.054-.837-8.024 1.773-8.861 5.83s1.773 8.024 5.83 8.861c14.334 2.958 29.088 4.458 43.853 4.458 41 0 80.893-11.544 115.365-33.386 2.17-1.375 3.486-3.766 3.486-6.335-.002-29.594-24.058-53.671-53.628-53.671zm-121.891-153.407c2.038-1.194 3.395-3.279 3.66-5.626.266-2.347-.589-4.683-2.309-6.303-2.552-2.405-3.958-5.656-3.958-9.155 0-6.932 5.631-12.572 12.553-12.572 2.087 0 4.073.496 5.901 1.474 1.764.944 3.832 1.144 5.745.555 1.912-.589 3.51-1.917 4.438-3.69 2.442-4.667 7.213-7.566 12.451-7.566 4.791 0 9.208 2.41 11.815 6.445 1.382 2.138 3.754 3.429 6.299 3.429h.129c2.545 0 4.917-1.291 6.299-3.429 2.608-4.036 7.026-6.446 11.816-6.446 6.337 0 11.918 4.271 13.572 10.385.568 2.1 2.02 3.85 3.979 4.796 1.958.945 4.231.995 6.229.134 1.173-.505 2.423-.762 3.718-.762 5.194 0 9.42 4.233 9.42 9.437 0 2.322-.849 4.552-2.389 6.28-1.57 1.761-2.22 4.158-1.754 6.471.465 2.313 1.992 4.271 4.12 5.288 7.429 3.548 12.229 11.161 12.229 19.396 0 11.841-9.621 21.474-21.446 21.474-8.806 0-16.851-5.526-20.018-13.751-.846-2.197-2.675-3.87-4.939-4.516-.677-.194-1.37-.289-2.059-.289-1.613 0-3.204.521-4.521 1.515-4.151 3.135-9.103 4.792-14.32 4.792s-10.168-1.657-14.319-4.792c-1.879-1.419-4.316-1.874-6.58-1.227s-4.093 2.319-4.939 4.517c-3.167 8.225-11.212 13.751-20.019 13.751-11.825 0-21.445-9.633-21.445-21.474.002-7.59 4.079-14.695 10.642-18.541zm56.662 175.628c-3.925 0-7.615-1.53-10.391-4.309-2.669-2.671-4.186-6.189-4.3-9.949.967-7.211 1.019-14.537.153-21.785-.231-1.938-1.21-3.71-2.727-4.939-25.241-20.441-30.539-33.608-30.539-41.054 0-1.241.048-2.417.136-3.419.553-5.645.676-21.006.532-35.181.425.015.852.023 1.28.023 12.011 0 23.188-6.047 29.915-15.659 4.965 2.246 10.361 3.41 15.942 3.41s10.977-1.164 15.942-3.41c6.726 9.612 17.903 15.659 29.915 15.659.429 0 .857-.008 1.282-.023-.144 14.169-.021 29.506.524 35.055.096 1.123.144 2.316.144 3.547 0 7.445-5.299 20.612-30.542 41.061-1.517 1.229-2.495 3.001-2.727 4.939-.864 7.248-.813 14.571.154 21.777-.245 7.902-6.742 14.257-14.693 14.257z"/><path d="m494.915 418.028c-5.957-14.456-11.042-88.702-12.865-153.116.082-19.827-6.131-36.17-18.466-48.573-15.408-15.493-40.424-24.025-70.44-24.025-30.017 0-55.033 8.532-70.44 24.025-12.335 12.404-18.548 28.745-18.466 48.574-1.823 64.413-6.908 138.655-12.864 153.114-10.506 9.804-17.085 23.771-17.085 39.248 0 2.569 1.315 4.96 3.486 6.335 34.473 21.841 74.365 33.386 115.365 33.386 14.764 0 29.519-1.5 43.853-4.458 4.057-.837 6.667-4.804 5.83-8.861s-4.803-6.665-8.861-5.83c-13.339 2.753-27.073 4.148-40.821 4.148-36.695 0-72.433-9.935-103.641-28.771 2.029-19.426 18.483-34.621 38.416-34.621h36.479c1.311 5.067 3.951 9.714 7.747 13.513 5.61 5.615 13.069 8.708 21.003 8.708 13.788 0 25.412-9.452 28.741-22.221h36.487c19.933 0 36.387 15.194 38.416 34.621-10.038 6.058-20.626 11.243-31.533 15.44-3.866 1.487-5.794 5.827-4.306 9.693 1.146 2.98 3.988 4.809 7.001 4.809.896 0 1.807-.162 2.692-.502 13.175-5.069 25.917-11.48 37.871-19.054 2.17-1.375 3.486-3.766 3.486-6.335 0-15.476-6.579-29.443-17.085-39.247zm-101.77 7.797c-3.925 0-7.615-1.53-10.392-4.309-2.669-2.671-4.186-6.189-4.3-9.949.967-7.209 1.019-14.535.153-21.785-.231-1.938-1.21-3.71-2.727-4.939-25.241-20.441-30.539-33.608-30.539-41.054 0-1.236.048-2.413.136-3.418.556-5.672.678-21.186.53-35.435h45.639c8.923 0 16.947-3.927 22.436-10.145 5.489 6.218 13.513 10.145 22.436 10.145h3.77c-.148 14.237-.028 29.724.52 35.31.096 1.116.144 2.308.144 3.544 0 7.445-5.299 20.612-30.542 41.061-1.517 1.229-2.495 3.001-2.727 4.939-.864 7.246-.812 14.569.154 21.776-.243 7.904-6.74 14.259-14.691 14.259zm29.014-22.221c-.149-3.029-.106-6.069.13-9.1 22.644-18.849 33.664-35.458 33.664-50.715 0-1.661-.067-3.284-.207-4.916-.511-5.206-.669-23.697-.354-41.241 0-.006 0-.011 0-.017 0-.015.001-.03.001-.045.001-.045.002-.09.002-.135 0-4.142-3.358-7.5-7.5-7.5h-11.376c-8.236 0-14.936-6.71-14.936-14.958 0-4.142-3.358-7.5-7.5-7.5s-7.5 3.358-7.5 7.5c0 8.248-6.701 14.958-14.937 14.958h-53.246c-4.142 0-7.5 3.358-7.5 7.5 0 .045.001.09.002.135h-.002c.317 17.572.159 36.115-.36 41.414-.132 1.517-.2 3.133-.2 4.804 0 15.259 11.019 31.867 33.662 50.711.236 3.033.279 6.075.13 9.105h-36.216c-6.567 0-12.862 1.188-18.682 3.359 6.79-40.062 9.461-122.591 10.002-141.752.002-.084.003-.168.003-.252-.087-15.748 4.658-28.547 14.101-38.042 12.571-12.641 33.811-19.603 59.805-19.603s47.233 6.961 59.804 19.602c9.443 9.496 14.188 22.295 14.101 38.043 0 .084 0 .168.003.252.01.347 1.004 35.083 3.249 71.743 2.194 35.833 4.513 57.065 6.669 69.978-5.796-2.152-12.062-3.328-18.597-3.328z"/><path d="m72.372 133.825h24.774v28.962c0 2.78 1.538 5.332 3.995 6.63 2.458 1.3 5.432 1.133 7.729-.433l51.594-35.16h191.298l51.593 35.16c1.269.864 2.744 1.302 4.224 1.302 1.201 0 2.404-.288 3.505-.87 2.457-1.299 3.995-3.851 3.995-6.63v-28.962h24.775c15.055 0 27.302-12.256 27.302-27.321v-64.18c0-15.065-12.248-27.321-27.302-27.321h-305.209c-4.142 0-7.5 3.358-7.5 7.5s3.358 7.5 7.5 7.5h305.209c6.784 0 12.302 5.527 12.302 12.321v64.18c0 6.793-5.519 12.321-12.302 12.321h-32.275c-4.142 0-7.5 3.358-7.5 7.5v22.276l-41.781-28.473c-1.245-.849-2.717-1.302-4.224-1.302h-195.923c-1.507 0-2.979.454-4.224 1.302l-41.781 28.473v-22.275c0-4.142-3.358-7.5-7.5-7.5h-32.274c-6.784 0-12.302-5.527-12.302-12.321v-64.18c0-6.793 5.519-12.321 12.302-12.321h27.229c4.142 0 7.5-3.358 7.5-7.5s-3.358-7.5-7.5-7.5h-27.229c-15.055 0-27.302 12.256-27.302 27.321v64.18c0 15.066 12.247 27.321 27.302 27.321z"/><path d="m432.49 57.423c0-4.142-3.358-7.5-7.5-7.5h-337.811c-4.142 0-7.5 3.358-7.5 7.5s3.358 7.5 7.5 7.5h337.811c4.142 0 7.5-3.358 7.5-7.5z"/><path d="m318.776 84.24c-4.142 0-7.5 3.358-7.5 7.5s3.358 7.5 7.5 7.5h66.281c4.142 0 7.5-3.358 7.5-7.5s-3.358-7.5-7.5-7.5z"/><path d="m87.207 84.24c-4.142 0-7.5 3.358-7.5 7.5s3.358 7.5 7.5 7.5h196.388c4.142 0 7.5-3.358 7.5-7.5s-3.358-7.5-7.5-7.5z"/></g></svg>